<svg xmlns:dc="http://purl.org/dc/elements/1.1/" xmlns:cc="http://creativecommons.org/ns#" xmlns:rdf="http://www.w3.org/1999/02/22-rdf-syntax-ns#" xmlns:svg="http://www.w3.org/2000/svg" xmlns="http://www.w3.org/2000/svg" xml:space="preserve" id="svg2" version="1.1" viewBox="13.57 40.82 301.06 155.02" width="440.3855060505443" height="227.0737765573119"><metadata id="metadata8"><rdf:RDF><cc:Work rdf:about=""><dc:format>image/svg+xml</dc:format><dc:type rdf:resource="http://purl.org/dc/dcmitype/StillImage"/></cc:Work></rdf:RDF></metadata><defs id="defs6"/><g transform="matrix(1.3333333,0,0,-1.3333333,0,248)" id="g10"><g transform="scale(0.1)" id="g12"><path id="path14" style="fill:#ea0905;fill-opacity:1;fill-rule:nonzero;stroke:none" d="m 995.223,1018.6 c -31.09,33.15 -55.489,76.35 -36.59,121.4 16.453,34.32 31.097,69.27 38.441,108.93 3.046,-41.46 28.046,-78.16 40.246,-117.82 4.25,-18.97 4.85,-39.11 -2.45,-58.63 -7.94,-21.32 -21.35,-40.29 -36.597,-56.84 l -3.05,2.96"/><path id="path16" style="fill:#0b185e;fill-opacity:1;fill-rule:nonzero;stroke:none" d="m 1224.53,1049.05 c -18.9,-14.26 -44.49,-16.64 -63.43,-7.15 l -10.35,7.74 -99.43,127.68 c 32.94,-5.94 56.73,10.07 75.63,39.18 18.9,27.9 18.3,67.13 0,95.02 -20.74,30.28 -62.79,40.39 -96.98,35.63 -60.341,-8.91 -103.032,-62.35 -116.474,-118.77 -13.402,-64.15 -3.652,-124.71 17.695,-181.13 4.895,-11.87 11.594,-24.34 20.137,-35.04 -63.433,27.93 -119.562,79 -148.812,147.29 -32.34,74.23 -31.739,167.45 6.695,242.27 30.5,58.21 84.18,111.66 150.629,134.24 69.54,28.48 163.46,22.54 231.15,-15.47 82.33,-41.57 144.56,-143.7 145.17,-235.74 2.44,-94.43 -39.05,-180.55 -111.63,-235.75"/><path id="path18" style="fill:#ea0905;fill-opacity:1;fill-rule:nonzero;stroke:none" d="M 206.641,789.398 V 639.602 H 101.762 v 444.128 c 44.535,2.34 88.429,2.97 132.968,2.97 104.879,0 164.665,-42.07 164.665,-130.282 0,-33.777 -10.997,-62.801 -32.942,-86.488 -17.09,-18.938 -39.039,-31.367 -64.035,-38.492 9.145,-12.43 17.051,-22.481 22.547,-30.778 L 439.641,640.184 H 309.117 Z m 19.543,206.098 c -7.344,0 -13.446,0 -19.543,-0.586 v -98.918 l 17.093,-0.586 c 32.942,0 65.883,13.637 65.883,51.508 0,31.984 -17.094,48.582 -63.433,48.582"/><path id="path20" style="fill:#ea0905;fill-opacity:1;fill-rule:nonzero;stroke:none" d="m 723.23,791.777 -1.847,-10.675 H 532.324 c 3.047,-41.457 26.239,-60.973 71.981,-60.973 39.039,0 65.843,9.469 100.027,25.441 l 10.352,-88.207 c -42.09,-16.593 -78.082,-24.308 -123.821,-24.308 -109.136,0 -164.664,58.636 -164.664,170.562 0,50.922 13.442,92.957 41.485,126.156 28.046,33.735 67.086,50.332 115.879,50.332 45.738,0 82.328,-14.218 107.929,-45.035 23.192,-27.234 34.188,-62.765 34.188,-105.386 0.601,-13.051 -0.645,-25.477 -2.45,-37.907 z m -111.019,92.371 c -6.703,7.715 -16.453,12.426 -30.496,12.426 -23.754,0 -39,-14.804 -45.098,-36.695 h 85.985 c -1.844,10.672 -5.497,18.934 -10.391,24.269"/><path id="path22" style="fill:#ea0905;fill-opacity:1;fill-rule:nonzero;stroke:none" d="m 776.273,639.602 v 466.028 c 26.844,-43.24 63.438,-77.57 104.282,-103.63 V 638.977 l -104.282,0.625"/><path id="path24" style="fill:#ea0905;fill-opacity:1;fill-rule:nonzero;stroke:none" d="M 945.836,972.977 H 1050.11 V 640.184 H 945.836 v 332.793"/><path id="path26" style="fill:#ea0905;fill-opacity:1;fill-rule:nonzero;stroke:none" d="m 1275.17,663.871 -16.49,-12.426 c -20.11,-11.843 -42.69,-17.765 -67.09,-17.765 -29.85,0 -54.89,7.675 -73.79,24.855 -18.29,17.18 -26.84,40.867 -26.84,68.688 0,40.863 19.54,72.851 55.53,95.332 31.7,18.972 73.19,29.023 122.58,30.23 v 4.129 c 0,23.688 -12.2,36.703 -47.59,36.703 -40.84,0 -67.09,-12.429 -101.83,-31.949 L 1109.9,957 c 41.44,15.395 79.28,23.105 123.78,23.105 48.19,0 85.98,-9.507 109.78,-31.984 20.74,-20.144 29.89,-50.336 29.89,-88.242 V 731.391 c 0,-30.821 1.2,-61.594 2.45,-91.789 h -100.63 z m -6.7,111.93 c -60.39,-1.789 -77.48,-18.387 -77.48,-36.738 0,-14.219 5.49,-20.723 24.39,-20.723 15.25,0 27.45,5.922 38.44,18.973 9.15,11.839 14,24.269 14.65,38.488"/><path id="path28" style="fill:#ea0905;fill-opacity:1;fill-rule:nonzero;stroke:none" d="m 1534.37,939.238 c 14.64,26.649 47.54,40.867 89.63,40.867 68.93,0 104.28,-39.113 104.28,-111.343 V 638.977 H 1624.6 v 210.222 c 0,31.403 -10.35,39.117 -25.6,39.117 -15.24,0 -28.64,-7.128 -40.84,-24.894 -12.2,-17.18 -18.94,-37.91 -18.94,-62.762 V 638.977 h -103.68 v 334 h 99.42 v -12.43 c 0,-7.09 0,-14.219 -0.59,-21.309"/><path id="path30" style="fill:#ea0905;fill-opacity:1;fill-rule:nonzero;stroke:none" d="m 1931.99,633.68 c -100.63,0 -151.23,56.258 -151.23,162.226 0,52.711 13.4,96.543 42.05,129.696 30.49,36.113 74.43,53.296 129.92,53.296 27.45,0 50.64,-4.714 76.84,-11.843 l -10.96,-95.332 c -21.34,7.711 -43.33,15.972 -66.48,15.972 -49.4,0 -63.44,-40.832 -63.44,-83.488 0,-55.055 20.75,-76.402 60.99,-76.402 31.1,0 45.14,6.543 71.34,20.14 l 8.55,-95.332 c -34.15,-13.636 -61.59,-18.933 -97.58,-18.933"/><path id="path32" style="fill:#ea0905;fill-opacity:1;fill-rule:nonzero;stroke:none" d="m 2357.7,791.777 -1.85,-10.675 h -189.06 c 3.65,-41.457 26.24,-60.973 71.98,-60.973 39.04,0 65.84,9.469 100.03,25.441 l 10.35,-88.207 c -42.09,-16.593 -78.08,-24.308 -123.82,-24.308 -109.13,0 -164.67,58.636 -164.67,170.562 0,50.922 13.45,92.957 41.49,126.156 28.05,33.735 67.08,50.332 115.28,50.332 45.73,0 82.33,-14.218 107.93,-45.035 23.19,-27.234 34.14,-62.765 34.14,-105.386 0.64,-13.051 0,-25.477 -1.8,-37.907 z m -111.63,92.371 c -6.7,7.715 -16.45,12.426 -30.49,12.426 -23.79,0 -39.04,-14.804 -45.14,-36.695 h 86.02 c -1.84,10.672 -4.89,18.934 -10.39,24.269"/><path id="path34" style="fill:#06125c;fill-opacity:1;fill-rule:evenodd;stroke:none" d="M 102.508,500.965 H 1722.95 V 435.191 H 102.508 v 65.774"/><g transform="scale(10)" id="g36"><text id="text40" style="font-variant:normal;font-weight:normal;font-size:16.51720047px;font-family:ArialRoundedMTBold;-inkscape-font-specification:ArialRoundedMTBold;writing-mode:lr-tb;fill:#06125c;fill-opacity:1;fill-rule:nonzero;stroke:none" transform="matrix(1,0,0,-1,173.969,43.2109)"><tspan id="tspan38" y="0" x="0 12.374206 23.886694 33.664803 46.039009 51.70462">RETAIL</tspan></text>
</g></g></g></svg>