<svg width="441" height="228" viewBox="0 0 441 228" fill="none" xmlns="http://www.w3.org/2000/svg">
<g clip-path="url(#clip0_4290_1011)">
<path d="M174.256 104.551C168.192 98.0851 163.434 89.6595 167.12 80.873C170.329 74.1793 173.185 67.3628 174.617 59.6276C175.211 67.7138 180.087 74.8717 182.467 82.6069C183.296 86.3068 183.413 90.2349 181.989 94.042C180.44 98.2002 177.825 101.9 174.851 105.128L174.256 104.551Z" fill="#7B7B7B"/>
<path d="M218.98 98.6117C215.293 101.393 210.302 101.857 206.608 100.006L204.59 98.4966L185.197 73.5942C191.622 74.7527 196.262 71.6302 199.948 65.9526C203.634 60.5111 203.517 52.8597 199.948 47.4201C195.903 41.5144 187.701 39.5425 181.033 40.4709C169.264 42.2087 160.938 52.6315 158.316 63.6356C155.702 76.1472 157.604 87.9587 161.767 98.9628C162.722 101.278 164.029 103.71 165.695 105.797C153.323 100.349 142.376 90.3889 136.671 77.0698C130.363 62.5921 130.481 44.4107 137.977 29.818C143.925 18.4648 154.395 8.04006 167.355 3.6361C180.918 -1.91857 199.236 -0.760054 212.438 6.65333C228.496 14.7611 240.633 34.6803 240.752 52.6315C241.228 71.0489 233.136 87.8456 218.98 98.6117Z" fill="black"/>
<path d="M20.4524 149.254V178.47H-0.00292969V91.848C8.68308 91.3916 17.2441 91.2687 25.9308 91.2687C46.3862 91.2687 58.0467 99.474 58.0467 116.679C58.0467 123.266 55.9019 128.927 51.6218 133.547C48.2886 137.241 44.0077 139.665 39.1326 141.054C40.9162 143.479 42.4582 145.439 43.5301 147.057L65.8962 178.356H40.4391L20.4524 149.254ZM24.2641 109.057C22.8317 109.057 21.6416 109.057 20.4524 109.171V128.464L23.7862 128.578C30.2111 128.578 36.6359 125.919 36.6359 118.532C36.6359 112.294 33.3019 109.057 24.2641 109.057Z" fill="#7B7B7B"/>
<path d="M121.207 148.79L120.846 150.872H83.9728C84.5671 158.958 89.0904 162.764 98.0118 162.764C105.626 162.764 110.854 160.918 117.521 157.802L119.54 175.006C111.331 178.242 104.311 179.747 95.3901 179.747C74.1045 179.747 63.2744 168.311 63.2744 146.481C63.2744 136.549 65.8961 128.351 71.3656 121.876C76.8356 115.296 84.4499 112.059 93.9663 112.059C102.887 112.059 110.023 114.832 115.017 120.843C119.54 126.154 121.685 133.084 121.685 141.397C121.802 143.942 121.559 146.366 121.207 148.79ZM99.5538 130.774C98.2464 129.27 96.3448 128.351 93.6059 128.351C88.973 128.351 85.9994 131.238 84.8101 135.508H101.58C101.221 133.426 100.508 131.815 99.5538 130.774Z" fill="#7B7B7B"/>
<path d="M131.552 178.47V87.5768C136.787 96.0103 143.925 102.706 151.891 107.789V178.592L131.552 178.47Z" fill="#7B7B7B"/>
<path d="M164.623 113.449H184.96V178.356H164.623V113.449Z" fill="#7B7B7B"/>
<path d="M228.856 173.737L225.639 176.16C221.717 178.47 217.313 179.625 212.554 179.625C206.733 179.625 201.849 178.128 198.163 174.777C194.595 171.427 192.928 166.807 192.928 161.381C192.928 153.411 196.739 147.172 203.758 142.787C209.941 139.087 218.033 137.127 227.666 136.891V136.086C227.666 131.466 225.286 128.927 218.384 128.927C210.419 128.927 205.299 131.352 198.523 135.159L196.622 116.565C204.704 113.563 212.084 112.059 220.764 112.059C230.162 112.059 237.533 113.913 242.175 118.297C246.22 122.226 248.004 128.115 248.004 135.508V160.568C248.004 166.579 248.239 172.581 248.482 178.47H228.856V173.737ZM227.549 151.906C215.771 152.255 212.437 155.492 212.437 159.071C212.437 161.845 213.508 163.113 217.194 163.113C220.169 163.113 222.548 161.958 224.692 159.413C226.476 157.104 227.422 154.679 227.549 151.906Z" fill="#7B7B7B"/>
<path d="M279.409 120.03C282.265 114.832 288.681 112.059 296.891 112.059C310.335 112.059 317.229 119.687 317.229 133.775V178.592H297.008V137.591C297.008 131.466 294.989 129.961 292.015 129.961C289.042 129.961 286.429 131.351 284.049 134.817C281.67 138.167 280.355 142.21 280.355 147.058V178.592H260.134V113.449H279.524V115.873C279.524 117.256 279.524 118.647 279.409 120.03Z" fill="#7B7B7B"/>
<path d="M356.96 179.625C337.334 179.625 327.465 168.653 327.465 147.985C327.465 137.704 330.078 129.155 335.666 122.689C341.613 115.646 350.183 112.294 361.005 112.294C366.359 112.294 370.882 113.214 375.992 114.604L373.855 133.198C369.692 131.694 365.404 130.082 360.888 130.082C351.254 130.082 348.515 138.046 348.515 146.366C348.515 157.104 352.562 161.267 360.411 161.267C366.476 161.267 369.215 159.991 374.325 157.339L375.992 175.932C369.332 178.592 363.98 179.625 356.96 179.625Z" fill="#7B7B7B"/>
<path d="M439.99 148.79L439.629 150.872H402.755C403.467 158.958 407.873 162.764 416.794 162.764C424.408 162.764 429.635 160.918 436.303 157.802L438.322 175.006C430.113 178.242 423.094 179.747 414.173 179.747C392.888 179.747 382.056 168.311 382.056 146.481C382.056 136.549 384.679 128.351 390.148 121.876C395.619 115.296 403.231 112.059 412.632 112.059C421.551 112.059 428.689 114.832 433.682 120.843C438.205 126.154 440.341 133.084 440.341 141.397C440.466 143.942 440.341 146.366 439.99 148.79ZM418.218 130.774C416.911 129.27 415.009 128.351 412.271 128.351C407.631 128.351 404.657 131.238 403.467 135.508H420.244C419.885 133.426 419.29 131.815 418.218 130.774Z" fill="#7B7B7B"/>
<path fill-rule="evenodd" clip-rule="evenodd" d="M0.142578 205.509H316.19V218.338H0.142578V205.509Z" fill="black"/>
<path d="M328.248 206.862H326.612V214.271C326.612 215.246 326.397 215.964 325.967 216.426C325.537 216.887 324.976 217.118 324.284 217.118C323.54 217.118 322.963 216.877 322.554 216.394C322.145 215.912 321.94 215.204 321.94 214.271V196.527C321.94 195.521 322.166 194.792 322.617 194.341C323.068 193.89 323.797 193.665 324.803 193.665H332.401C333.449 193.665 334.346 193.712 335.091 193.806C335.835 193.89 336.506 194.068 337.104 194.341C337.828 194.645 338.467 195.08 339.023 195.647C339.579 196.213 339.998 196.874 340.281 197.629C340.575 198.373 340.722 199.165 340.722 200.004C340.722 201.724 340.234 203.097 339.259 204.125C338.294 205.153 336.826 205.881 334.855 206.311C335.683 206.752 336.475 207.402 337.23 208.262C337.985 209.122 338.656 210.039 339.243 211.015C339.841 211.979 340.302 212.855 340.627 213.642C340.963 214.418 341.131 214.952 341.131 215.246C341.131 215.55 341.031 215.854 340.832 216.158C340.643 216.452 340.381 216.683 340.045 216.85C339.71 217.029 339.322 217.118 338.881 217.118C338.357 217.118 337.917 216.992 337.56 216.74C337.204 216.499 336.894 216.19 336.632 215.812C336.38 215.435 336.034 214.879 335.594 214.145L333.722 211.03C333.051 209.887 332.448 209.017 331.913 208.419C331.389 207.822 330.854 207.413 330.309 207.192C329.763 206.972 329.077 206.862 328.248 206.862ZM330.922 197.172H326.612V203.512H330.796C331.918 203.512 332.862 203.417 333.628 203.228C334.393 203.029 334.975 202.699 335.374 202.237C335.783 201.766 335.987 201.121 335.987 200.303C335.987 199.663 335.825 199.102 335.5 198.62C335.174 198.127 334.724 197.76 334.147 197.518C333.601 197.288 332.527 197.172 330.922 197.172ZM360.353 197.267H349.829V202.93H359.519C360.232 202.93 360.762 203.092 361.108 203.417C361.464 203.732 361.643 204.151 361.643 204.676C361.643 205.2 361.47 205.63 361.124 205.965C360.777 206.29 360.243 206.453 359.519 206.453H349.829V213.012H360.715C361.449 213.012 361.999 213.185 362.366 213.531C362.744 213.867 362.932 214.318 362.932 214.884C362.932 215.43 362.744 215.875 362.366 216.221C361.999 216.557 361.449 216.725 360.715 216.725H348.021C347.003 216.725 346.269 216.499 345.818 216.048C345.378 215.597 345.158 214.868 345.158 213.862V196.527C345.158 195.856 345.257 195.311 345.457 194.892C345.656 194.462 345.965 194.152 346.385 193.963C346.815 193.764 347.36 193.665 348.021 193.665H360.353C361.097 193.665 361.648 193.832 362.004 194.168C362.371 194.493 362.555 194.923 362.555 195.458C362.555 196.003 362.371 196.444 362.004 196.779C361.648 197.104 361.097 197.267 360.353 197.267ZM381.62 197.518H376.523V214.271C376.523 215.236 376.308 215.954 375.878 216.426C375.448 216.887 374.892 217.118 374.211 217.118C373.519 217.118 372.952 216.882 372.512 216.41C372.082 215.938 371.867 215.225 371.867 214.271V197.518H366.771C365.974 197.518 365.381 197.345 364.993 196.999C364.605 196.643 364.411 196.176 364.411 195.599C364.411 195.002 364.61 194.53 365.009 194.184C365.418 193.838 366.005 193.665 366.771 193.665H381.62C382.427 193.665 383.025 193.843 383.413 194.199C383.811 194.556 384.01 195.023 384.01 195.599C384.01 196.176 383.811 196.643 383.413 196.999C383.014 197.345 382.417 197.518 381.62 197.518ZM399.489 214.113L398.388 211.219H389.013L387.911 214.176C387.482 215.33 387.114 216.111 386.81 216.52C386.506 216.919 386.008 217.118 385.316 217.118C384.729 217.118 384.21 216.903 383.759 216.473C383.308 216.043 383.082 215.555 383.082 215.01C383.082 214.695 383.135 214.37 383.24 214.035C383.345 213.699 383.518 213.233 383.759 212.635L389.657 197.66C389.825 197.23 390.025 196.716 390.255 196.118C390.496 195.51 390.748 195.007 391.01 194.608C391.283 194.21 391.634 193.89 392.064 193.649C392.505 193.397 393.045 193.271 393.684 193.271C394.335 193.271 394.875 193.397 395.305 193.649C395.745 193.89 396.096 194.205 396.358 194.593C396.631 194.981 396.857 195.4 397.035 195.851C397.224 196.292 397.46 196.884 397.743 197.629L403.767 212.509C404.239 213.642 404.475 214.465 404.475 214.979C404.475 215.513 404.25 216.006 403.799 216.457C403.358 216.898 402.823 217.118 402.194 217.118C401.827 217.118 401.513 217.05 401.25 216.913C400.988 216.788 400.768 216.615 400.59 216.394C400.411 216.164 400.217 215.818 400.008 215.356C399.809 214.884 399.635 214.47 399.489 214.113ZM390.239 207.711H397.129L393.653 198.195L390.239 207.711ZM408.109 214.271V196.103C408.109 195.159 408.324 194.451 408.754 193.979C409.184 193.507 409.739 193.271 410.421 193.271C411.124 193.271 411.69 193.507 412.12 193.979C412.56 194.441 412.78 195.148 412.78 196.103V214.271C412.78 215.225 412.56 215.938 412.12 216.41C411.69 216.882 411.124 217.118 410.421 217.118C409.75 217.118 409.194 216.882 408.754 216.41C408.324 215.928 408.109 215.215 408.109 214.271ZM422.596 196.103V212.887H432.065C432.82 212.887 433.397 213.07 433.796 213.437C434.204 213.804 434.409 214.266 434.409 214.821C434.409 215.388 434.21 215.849 433.811 216.206C433.413 216.552 432.831 216.725 432.065 216.725H420.787C419.77 216.725 419.036 216.499 418.585 216.048C418.144 215.597 417.924 214.868 417.924 213.862V196.103C417.924 195.159 418.134 194.451 418.553 193.979C418.983 193.507 419.544 193.271 420.236 193.271C420.939 193.271 421.505 193.507 421.935 193.979C422.376 194.441 422.596 195.148 422.596 196.103Z" fill="black"/>
</g>
<defs>
<clipPath id="clip0_4290_1011">
<rect width="440.385" height="227.074" fill="white"/>
</clipPath>
</defs>
</svg>
